<?xml version="1.0" encoding="UTF-8" standalone="no"?>
<!-- Created with Inkscape (http://www.inkscape.org/) -->

<svg
   width="210mm"
   height="297mm"
   viewBox="0 0 210 297"
   version="1.1"
   id="svg5"
   xml:space="preserve"
   xmlns="http://www.w3.org/2000/svg"
   xmlns:svg="http://www.w3.org/2000/svg"><defs
     id="defs2"><rect
       x="-64.566656"
       y="-573.88338"
       width="431.41696"
       height="403.05308"
       id="rect505" /></defs><g
     id="layer1"><path
       style="fill:#000000;stroke-width:0.264583"
       d="m 135.14925,90.981736 c -0.0811,-0.21135 -0.11093,-1.02492 -0.0663,-1.80794 0.0601,-1.05302 0.1845,-1.42367 0.47805,-1.42367 0.52,0 0.58303,3.33343 0.0663,3.50568 -0.18183,0.0606 -0.39695,-0.0627 -0.47805,-0.27407 z"
       id="path959" /><path
       style="fill:#000000;stroke-width:0.264583"
       d="m 140.50303,92.181896 c -0.18382,-0.31364 1.91255,-2.97656 2.34327,-2.97656 0.60617,0 0.46605,0.43786 -0.59489,1.85895 -0.91915,1.23117 -1.47397,1.58582 -1.74838,1.11761 z"
       id="path957" /><path
       style="fill:#000000;stroke-width:0.264583"
       d="m 128.86851,91.094736 c -1.03927,-1.36278 -1.2109,-1.8894 -0.61576,-1.8894 0.33776,0 2.28118,2.53779 2.28118,2.97885 0,0.56857 -0.80019,0.0451 -1.66542,-1.08945 z"
       id="path955" /><path
       style="fill:#000000;stroke-width:0.264583"
       d="m 144.67864,95.538346 c -0.26238,-0.42454 0.0793,-0.69025 1.86189,-1.44785 1.69061,-0.71852 2.46296,-0.72694 1.70473,-0.0186 -0.63722,0.59531 -3.40236,1.73221 -3.56662,1.46644 z"
       id="path953" /><path
       style="fill:#000000;stroke-width:0.264583"
       d="m 124.46828,94.925506 c -1.55792,-0.76894 -2.34181,-1.48684 -1.62351,-1.48684 0.54598,0 3.72041,1.5528 3.72041,1.81987 0,0.55221 -0.44728,0.48117 -2.0969,-0.33303 z"
       id="path951" /><path
       style="fill:#000000;stroke-width:0.264583"
       d="m 137.94226,96.481376 c 0,-0.904 0.0252,-0.92604 1.05834,-0.92604 1.03313,0 1.05833,0.0221 1.05833,0.92604 0,0.90399 -0.0252,0.92604 -1.05833,0.92604 -1.03314,0 -1.05834,-0.022 -1.05834,-0.92604 z"
       id="path949" /><path
       style="fill:#000000;stroke-width:0.264583"
       d="m 132.91518,95.555336 v -1.85204 h 2.24896 2.24896 v 1.85209 1.85208 h -2.24896 -2.24896 z"
       id="path947" /><path
       style="fill:#000000;stroke-width:0.264583"
       d="m 130.26935,96.481376 c 0,-0.904 0.0252,-0.92604 1.05833,-0.92604 1.03313,0 1.05833,0.0221 1.05833,0.92604 0,0.90399 -0.0252,0.92604 -1.05833,0.92604 -1.03314,0 -1.05833,-0.022 -1.05833,-0.92604 z"
       id="path945" /><path
       style="fill:#000000;stroke-width:0.264583"
       d="m 145.87976,99.645676 c 0,-0.34006 0.35808,-0.39485 2.16152,-0.33073 1.43643,0.0511 2.19824,0.18779 2.271,0.40757 0.0819,0.2474 -0.4627,0.330734 -2.16151,0.330734 -1.86878,0 -2.27101,-0.0722 -2.27101,-0.407574 z"
       id="path943" /><path
       style="fill:#000000;stroke-width:0.264583"
       d="m 120.81049,99.722476 c 0.0757,-0.22706 0.75994,-0.33073 2.18281,-0.33073 1.42288,0 2.10713,0.10367 2.18282,0.33073 0.0825,0.24762 -0.46596,0.330734 -2.18282,0.330734 -1.71685,0 -2.26535,-0.0831 -2.18281,-0.330734 z"
       id="path941" /><path
       style="fill:#000000;stroke-width:0.264583"
       d="m 137.94226,99.391746 v -1.71975 h 2.24896 2.24896 v 1.71979 1.719804 h -2.24896 -2.24896 z"
       id="path939" /><path
       style="fill:#000000;stroke-width:0.264583"
       d="m 127.99626,100.74719 c -0.0769,-0.20039 -0.10293,-0.944534 -0.0578,-1.653644 l 0.082,-1.2893 2.18281,-0.0769 2.18281,-0.0768 v 1.73049 1.730494 h -2.12497 c -1.56047,0 -2.16211,-0.0968 -2.26478,-0.36435 z"
       id="path937" /><path
       style="fill:#000000;stroke-width:0.264583"
       d="m 114.60601,99.206536 c -76.404007,-66.137691 -38.202003,-33.068845 0,0 z"
       id="path935" /><path
       style="fill:#000000;stroke-width:0.264583"
       d="m 105.13393,103.78952 c -70.089287,-69.193013 -35.044643,-34.596507 0,0 z"
       id="path923" /><path
       style="fill:#000000;stroke-width:0.264583"
       d="m 145.92686,105.04406 c -1.14341,-0.56413 -1.5868,-0.91116 -1.40123,-1.09673 0.30937,-0.30937 3.77495,1.11937 3.94379,1.62589 0.17597,0.52789 -0.82029,0.32055 -2.54256,-0.52916 z"
       id="path917" /><path
       style="fill:#000000;stroke-width:0.264583"
       d="m 122.59643,105.6301 c 0,-0.27397 3.07208,-1.87273 3.59852,-1.87273 0.92002,0 0.4676,0.56655 -1.03821,1.30013 -1.69386,0.82519 -2.56031,1.01897 -2.56031,0.5726 z"
       id="path915" /><path
       style="fill:#000000;stroke-width:0.264583"
       d="m 137.94226,104.15424 v -2.51354 h 2.24896 2.24896 v 2.51354 2.51354 h -2.24896 -2.24896 z"
       id="path913" /><path
       style="fill:#000000;stroke-width:0.264583"
       d="m 128.05808,105.04147 c -0.0935,-0.89447 -0.16998,-2.02556 -0.16998,-2.51354 v -0.88723 h 4.77847 4.77847 l -0.0821,0.99219 -0.0821,0.99219 -2.44739,0.0761 -2.4474,0.0761 v 1.44528 1.44528 h -2.07897 -2.07898 z"
       id="path911" /><path
       style="fill:#000000;stroke-width:0.264583"
       d="m 140.11862,109.54132 c -0.54838,-1.29797 -0.56646,-1.8152 -0.0635,-1.8152 0.18593,0 1.59128,2.71542 1.59128,3.07468 0,0.0552 -0.2145,0.10032 -0.47666,0.10032 -0.3228,0 -0.66209,-0.43892 -1.05115,-1.3598 z"
       id="path909" /><path
       style="fill:#000000;stroke-width:0.264583"
       d="m 128.41726,110.48577 c 0,-0.51248 1.5185,-2.75965 1.8648,-2.75965 0.4517,0 0.2668,0.6666 -0.53605,1.93257 -0.79677,1.25637 -1.32875,1.5875 -1.32875,0.82708 z"
       id="path907" /><path
       style="fill:#000000;stroke-width:0.264583"
       d="m 134.76726,109.97508 c 0,-1.35232 0.0848,-1.7198 0.39688,-1.7198 0.31207,0 0.39687,0.36748 0.39687,1.7198 0,1.35231 -0.0848,1.71979 -0.39687,1.71979 -0.31208,0 -0.39688,-0.36748 -0.39688,-1.71979 z"
       id="path693" /></g></svg>
